<svg width="479" height="470" viewBox="0 0 479 470" fill="none" xmlns="http://www.w3.org/2000/svg">
<path d="M269.062 225.831C269.525 224.396 261.66 200.196 260.45 199.306C259.228 198.417 233.772 198.417 232.55 199.306C231.34 200.196 223.475 224.396 223.938 225.831C224.4 227.266 244.993 242.225 246.5 242.225C248.007 242.225 268.6 227.266 269.062 225.831Z" stroke="black" stroke-width="0.4"/>
<path d="M278.837 226.092C279.324 224.04 265.516 191.181 263.712 190.089C261.909 188.998 226.393 191.975 224.803 193.352C223.202 194.728 215.064 229.425 215.883 231.371C216.69 233.304 247.176 251.774 249.276 251.596C251.375 251.419 278.351 228.132 278.837 226.092Z" stroke="black" stroke-width="0.4"/>
<path d="M288.612 225.606C289.063 222.937 268.671 181.904 266.275 180.647C263.879 179.401 218.552 186.103 216.618 188.001C214.685 189.888 207.045 235.072 208.255 237.504C209.454 239.924 250.071 261.146 252.752 260.742C255.432 260.351 288.161 228.287 288.612 225.606Z" stroke="black" stroke-width="0.4"/>
<path d="M298.185 225.784C298.648 222.509 272.372 173.055 269.407 171.596C266.429 170.148 211.268 179.852 208.967 182.224C206.666 184.609 198.848 240.066 200.402 242.984C201.956 245.902 252.277 270.481 255.539 269.9C258.802 269.331 297.722 229.069 298.185 225.784Z" stroke="black" stroke-width="0.4"/>
<path d="M307.438 228.049C308.043 224.182 277.9 165.261 274.412 163.494C270.925 161.726 205.574 172.189 202.81 174.953C200.046 177.729 189.797 243.115 191.588 246.59C193.368 250.078 252.384 280.031 256.251 279.414C260.106 278.797 306.833 231.916 307.438 228.049Z" stroke="black" stroke-width="0.4"/>
<path d="M316.121 233.316C317.058 228.903 286.014 159.128 282.099 156.874C278.196 154.609 202.241 162.58 198.884 165.593C195.539 168.618 179.631 243.305 181.47 247.433C183.308 251.561 249.43 289.758 253.926 289.284C258.41 288.821 315.172 237.729 316.121 233.316Z" stroke="black" stroke-width="0.4"/>
<path d="M323.808 241.525C325.267 236.626 296.5 155 292.289 152.094C288.078 149.187 201.553 151.323 197.496 154.431C193.427 157.539 168.718 240.481 170.426 245.309C172.122 250.137 243.368 299.272 248.481 299.141C253.594 299.011 322.349 246.436 323.808 241.525Z" stroke="black" stroke-width="0.4"/>
<path d="M330.38 251.549C332.468 246.234 308.268 152.58 303.855 148.938C299.442 145.308 202.893 139.389 198.065 142.461C193.249 145.534 157.78 235.523 159.216 241.062C160.639 246.59 235.278 308.133 240.984 308.489C246.69 308.833 328.28 256.875 330.38 251.549Z" stroke="black" stroke-width="0.4"/>
<path d="M336.382 261.502C339.111 255.808 319.751 150.658 315.172 146.305C310.605 141.951 204.614 127.87 199.062 130.872C193.499 133.885 147.353 230.327 148.504 236.543C149.643 242.759 227.117 316.449 233.38 317.279C239.644 318.109 333.666 267.207 336.382 261.502Z" stroke="black" stroke-width="0.4"/>
<path d="M343.061 269.355C346.287 263.233 329.537 147.337 324.709 142.378C319.881 137.42 204.483 117.538 198.279 120.599C192.063 123.659 137.496 227.266 138.492 234.111C139.477 240.956 221.15 324.871 227.971 326.045C234.792 327.22 339.834 275.476 343.061 269.355Z" stroke="black" stroke-width="0.4"/>
<path d="M351.637 273.435C355.125 266.769 336.501 140.86 331.234 135.486C325.979 130.113 200.474 108.914 193.736 112.259C186.998 115.605 128.053 228.405 129.156 235.855C130.248 243.293 219.323 334.219 226.737 335.464C234.151 336.722 348.15 280.102 351.637 273.435Z" stroke="black" stroke-width="0.4"/>
<path d="M362.563 272.759C366.003 265.392 339.905 130.433 333.962 124.893C328.031 119.341 191.6 102.461 184.495 106.387C177.389 110.314 119.168 234.846 120.71 242.818C122.252 250.802 222.704 344.646 230.758 345.642C238.825 346.639 359.123 280.114 362.563 272.759Z" stroke="black" stroke-width="0.4"/>
<path d="M375.137 267.35C378.245 259.2 339.514 116.72 332.717 111.251C325.908 105.783 178.445 98.582 171.138 103.363C163.842 108.143 111.422 246.175 113.711 254.598C116.001 263.008 231.079 355.512 239.798 355.939C248.505 356.366 372.041 275.511 375.137 267.35Z" stroke="black" stroke-width="0.4"/>
<path d="M388.008 258.666C390.546 249.698 336.181 101.536 328.434 96.34C320.688 91.1442 162.964 97.0636 155.633 102.829C148.302 108.594 105.194 260.422 108.409 269.177C111.623 277.931 242.704 365.844 252.016 365.488C261.34 365.144 385.457 267.646 388.008 258.666Z" stroke="black" stroke-width="0.4"/>
<path d="M399.977 249.532C401.946 239.805 332.088 87.0042 323.44 82.1168C314.792 77.2413 147.887 96.4705 140.568 103.185C133.261 109.899 99.9626 274.574 104.091 283.613C108.219 292.641 254.555 375.192 264.412 374.053C274.282 372.926 398.008 259.26 399.977 249.532Z" stroke="black" stroke-width="0.4"/>
<path d="M410.701 243.388C412.279 232.984 330.332 74.7502 320.914 70.0289C311.495 65.3077 135.693 94.3589 128.29 101.844C120.9 109.341 94.1856 285.523 99.0255 294.871C103.877 304.23 263.179 384.065 273.57 382.357C283.962 380.637 409.123 253.803 410.701 243.388Z" stroke="black" stroke-width="0.4"/>
<path d="M420.309 243.257C421.875 232.237 333.749 65.7466 323.76 60.8474C313.76 55.9482 128.183 88.321 120.437 96.3044C112.691 104.3 86.1189 290.802 91.3265 300.636C96.5342 310.47 265.693 393.365 276.666 391.455C287.627 389.545 418.743 254.277 420.309 243.257Z" stroke="black" stroke-width="0.4"/>
<path d="M428.732 250.683C430.772 239.129 343.784 60.6457 333.416 55.1296C323.06 49.6136 126.428 77.2057 117.982 85.3434C109.547 93.493 75.0156 289.034 80.1521 299.58C85.2885 310.126 260.593 403.389 272.206 401.764C283.831 400.127 426.691 262.237 428.732 250.683Z" stroke="black" stroke-width="0.4"/>
<path d="M435.363 265.167C438.329 253.186 359.716 59.8153 349.241 53.3028C338.767 46.7903 130.568 61.7845 121.137 69.7324C111.706 77.6803 61.6348 280.327 66.2731 291.763C70.9232 303.186 248.173 413.425 260.486 412.547C272.787 411.657 432.409 277.136 435.363 265.167Z" stroke="black" stroke-width="0.4"/>
<path d="M439.704 284.088C443.868 271.846 378.945 62.7573 368.589 55.0229C358.221 47.2767 139.31 44.406 128.741 51.8794C118.183 59.3409 47.8031 266.65 51.6466 278.999C55.4781 291.36 230.889 422.345 243.819 422.523C256.761 422.689 435.541 296.342 439.704 284.088Z" stroke="black" stroke-width="0.4"/>
<path d="M442.409 303.436C447.795 291.015 397.972 67.3955 387.818 58.4274C377.676 49.4712 149.595 27.751 137.934 34.6313C126.274 41.5115 35.1458 251.715 38.0877 264.93C41.0296 278.145 212.775 429.783 226.251 431.064C239.738 432.345 437.024 315.856 442.409 303.436Z" stroke="black" stroke-width="0.4"/>
<path d="M445.565 319.047C451.935 306.425 413.666 70.2069 403.631 60.2424C393.607 50.2779 157.128 13.694 144.554 20.1472C131.979 26.6122 24.09 240.208 26.3557 254.171C28.6215 268.121 198.421 436.734 212.395 438.893C226.369 441.052 439.194 331.668 445.565 319.047Z" stroke="black" stroke-width="0.4"/>
<path d="M451.792 327.659C458.708 314.634 423.987 67.5971 413.749 56.9921C403.512 46.387 157.828 3.06512 144.577 9.53018C131.327 15.9834 14.2086 236.258 16.2608 250.861C18.313 265.452 191.612 444.908 206.132 447.47C220.64 450.032 444.865 340.672 451.792 327.659Z" stroke="black" stroke-width="0.4"/>
<path d="M462.587 327.433C469.491 313.732 427.783 57.4547 416.881 46.648C405.991 35.8531 149.358 -3.67277 135.716 3.34983C122.074 10.3724 5.18121 242.237 7.64861 257.385C10.116 272.522 194.507 455.335 209.667 457.672C224.827 460.009 455.683 341.135 462.587 327.433Z" stroke="black" stroke-width="0.4"/>
<path d="M477.356 318.24C483.691 303.602 424.663 40.3015 412.694 29.7558C400.724 19.2219 132.074 -6.00968 118.349 2.11614C104.636 10.2419 -2.38712 257.943 1.10046 273.506C4.58803 289.07 207.105 467.387 222.988 468.882C238.861 470.377 471.033 332.878 477.356 318.24Z" stroke="black" stroke-width="0.4"/>
</svg>
