<svg width="511" height="511" viewBox="0 0 511 511" fill="none" xmlns="http://www.w3.org/2000/svg">
<path d="M249.144 264.517C250.04 265.151 263.883 262.766 264.517 261.856C265.151 260.96 262.766 247.117 261.856 246.483C260.96 245.849 247.117 248.234 246.483 249.144C245.849 250.04 248.234 263.883 249.144 264.517Z" stroke="black" stroke-width="0.4"/>
<path d="M243.946 274.292C245.821 275.451 273.134 268.929 274.292 267.054C275.451 265.179 268.929 237.866 267.054 236.708C265.179 235.549 237.866 242.071 236.708 243.946C235.549 245.821 242.071 273.134 243.946 274.292Z" stroke="black" stroke-width="0.4"/>
<path d="M238.941 284.151C241.809 285.805 282.496 274.927 284.151 272.059C285.805 269.191 274.927 228.504 272.059 226.85C269.191 225.195 228.504 236.074 226.85 238.941C225.195 241.809 236.074 282.496 238.941 284.151Z" stroke="black" stroke-width="0.4"/>
<path d="M232.833 293.361C236.625 295.622 291.086 281.945 293.361 278.167C295.622 274.375 281.945 219.915 278.167 217.64C274.375 215.378 219.915 229.056 217.64 232.833C215.378 236.625 229.056 291.086 232.833 293.361Z" stroke="black" stroke-width="0.4"/>
<path d="M224.644 301.219C229.221 304.294 298.131 290.92 301.219 286.356C304.294 281.779 290.92 212.869 286.356 209.781C281.779 206.706 212.869 220.08 209.781 224.644C206.706 229.221 220.08 298.131 224.644 301.219Z" stroke="black" stroke-width="0.4"/>
<path d="M214.22 307.231C219.391 311.353 303.094 301.95 307.231 296.78C311.353 291.609 301.95 207.906 296.78 203.769C291.609 199.647 207.906 209.05 203.769 214.22C199.647 219.391 209.05 303.094 214.22 307.231Z" stroke="black" stroke-width="0.4"/>
<path d="M202.349 311.505C207.947 316.813 306.183 314.249 311.505 308.651C316.813 303.053 314.249 204.817 308.651 199.495C303.053 194.187 204.817 196.752 199.495 202.349C194.187 207.947 196.752 306.183 202.349 311.505Z" stroke="black" stroke-width="0.4"/>
<path d="M190.368 315.035C196.324 321.556 308.527 326.588 315.035 320.632C321.556 314.676 326.588 202.473 320.632 195.966C314.676 189.444 202.473 184.412 195.966 190.368C189.444 196.324 184.412 308.527 190.368 315.035Z" stroke="black" stroke-width="0.4"/>
<path d="M179.71 319.612C186.121 327.181 312.029 337.701 319.612 331.29C327.181 324.879 337.701 198.971 331.29 191.388C324.879 183.819 198.971 173.299 191.388 179.71C183.819 186.121 173.299 312.029 179.71 319.612Z" stroke="black" stroke-width="0.4"/>
<path d="M171.52 327.002C178.662 335.399 318.605 346.636 327.002 339.48C335.399 332.338 346.636 192.395 339.48 183.998C332.338 175.602 192.395 164.365 183.998 171.52C175.602 178.662 164.365 318.605 171.52 327.002Z" stroke="black" stroke-width="0.4"/>
<path d="M166.681 338.156C174.954 347.049 329.277 352.578 338.156 344.319C347.049 336.047 352.578 181.723 344.319 172.844C336.047 163.951 181.723 158.422 172.844 166.681C163.951 174.954 158.422 329.277 166.681 338.156Z" stroke="black" stroke-width="0.4"/>
<path d="M165.578 352.619C175.298 361.622 343.63 355.129 352.619 345.422C361.622 335.702 355.129 167.37 345.422 158.381C335.702 149.378 167.37 155.872 158.381 165.578C149.378 175.298 155.872 343.63 165.578 352.619Z" stroke="black" stroke-width="0.4"/>
<path d="M167.522 368.723C178.842 377.519 359.927 354.798 368.723 343.478C377.519 332.159 354.798 151.074 343.478 142.277C332.159 133.481 151.074 156.203 142.277 167.522C133.481 178.842 156.203 359.927 167.522 368.723Z" stroke="black" stroke-width="0.4"/>
<path d="M170.431 384.372C183.309 392.879 375.865 353.46 384.372 340.569C392.879 327.691 353.46 135.135 340.569 126.628C327.691 118.121 135.135 157.54 126.628 170.431C118.121 183.309 157.54 375.865 170.431 384.372Z" stroke="black" stroke-width="0.4"/>
<path d="M171.231 397.884C185.473 406.308 389.459 354.012 397.884 339.769C406.308 325.527 354.012 121.541 339.769 113.117C325.527 104.692 121.541 156.988 113.117 171.231C104.692 185.473 156.988 389.459 171.231 397.884Z" stroke="black" stroke-width="0.4"/>
<path d="M166.971 408.169C182.247 417.021 399.318 359.292 408.169 344.03C417.021 328.753 359.292 111.683 344.03 102.831C328.753 93.9796 111.683 151.708 102.831 166.971C93.9796 182.247 151.708 399.318 166.971 408.169Z" stroke="black" stroke-width="0.4"/>
<path d="M156.092 414.497C171.989 424.438 404.557 370.805 414.497 354.908C424.438 339.011 370.805 106.443 354.908 96.5026C339.011 86.5618 106.443 140.195 96.5026 156.092C86.5618 171.989 140.195 404.557 156.092 414.497Z" stroke="black" stroke-width="0.4"/>
<path d="M139.147 416.373C155.224 428.009 404.736 387.943 416.373 371.853C428.009 355.777 387.943 106.264 371.853 94.6275C355.777 82.9908 106.264 123.057 94.6275 139.147C82.9908 155.224 123.057 404.736 139.147 416.373Z" stroke="black" stroke-width="0.4"/>
<path d="M118.7 414.263C134.57 427.94 400.586 408.183 414.263 392.3C427.94 376.43 408.183 110.414 392.3 96.737C376.43 83.0598 110.414 102.817 96.737 118.7C83.0598 134.57 102.817 400.586 118.7 414.263Z" stroke="black" stroke-width="0.4"/>
<path d="M98.3226 410.279C113.792 425.996 394.561 428.161 410.279 412.678C425.996 397.208 428.161 116.439 412.678 100.722C397.208 85.0038 116.439 82.8392 100.722 98.3226C85.0038 113.792 82.8392 394.561 98.3226 410.279Z" stroke="black" stroke-width="0.4"/>
<path d="M81.226 408.086C96.4888 425.514 390.659 445.037 408.086 429.774C425.514 414.511 445.037 120.341 429.774 102.914C414.511 85.4863 120.341 65.9633 102.914 81.226C85.4863 96.4888 65.9633 390.659 81.226 408.086Z" stroke="black" stroke-width="0.4"/>
<path d="M69.617 411.478C85.2107 430.064 392.893 456.991 411.478 441.383C430.064 425.79 456.991 118.108 441.383 99.5221C425.79 80.9365 118.108 54.0095 99.5221 69.617C80.9365 85.2107 54.0095 392.893 69.617 411.478Z" stroke="black" stroke-width="0.4"/>
<path d="M64.7499 422.756C81.4741 441.824 403.674 462.974 422.756 446.25C441.824 429.526 462.974 107.326 446.25 88.2438C429.526 69.1757 107.326 48.0257 88.2438 64.7499C69.1757 81.4741 48.0257 403.674 64.7499 422.756Z" stroke="black" stroke-width="0.4"/>
<path d="M67.1215 441.494C85.7209 460.327 422.646 462.478 441.494 443.879C460.327 425.279 462.478 88.3543 443.879 69.5068C425.279 50.6731 88.3543 48.5222 69.5068 67.1215C50.6731 85.7209 48.5222 422.646 67.1215 441.494Z" stroke="black" stroke-width="0.4"/>
<path d="M75.8214 464.67C96.7371 482.635 446.705 456.094 464.67 435.179C482.635 414.263 456.094 64.2951 435.179 46.33C414.263 28.3648 64.2951 54.9058 46.33 75.8214C28.3648 96.7371 54.9058 446.705 75.8214 464.67Z" stroke="black" stroke-width="0.4"/>
<path d="M87.7476 488.095C111.007 504.875 471.33 446.512 488.095 423.253C504.875 399.993 446.512 39.6706 423.253 22.905C399.993 6.12561 39.6706 64.4881 22.905 87.7476C6.12561 111.007 64.4881 471.33 87.7476 488.095Z" stroke="black" stroke-width="0.4"/>
<path d="M97.8538 508.156C123.112 523.929 492.397 438.419 508.156 413.146C523.929 387.888 438.419 18.6032 413.146 2.84412C387.888 -12.9288 18.6032 72.5813 2.84412 97.8538C-12.9288 123.112 72.5813 492.397 97.8538 508.156Z" stroke="black" stroke-width="0.4"/>
</svg>
