<svg width="428" height="375" viewBox="0 0 428 375" fill="none" xmlns="http://www.w3.org/2000/svg">
<path d="M290.062 109.831C290.525 108.396 282.66 84.1962 281.45 83.3065C280.228 82.4168 254.772 82.4168 253.55 83.3065C252.34 84.1962 244.475 108.396 244.938 109.831C245.4 111.266 265.993 126.225 267.5 126.225C269.007 126.225 289.6 111.266 290.062 109.831Z" stroke="black" stroke-width="0.4"/>
<path d="M299.837 110.092C300.324 108.04 286.516 75.1806 284.712 74.0893C282.909 72.9979 247.393 75.9754 245.803 77.3515C244.202 78.7275 236.064 113.425 236.883 115.371C237.69 117.304 268.176 135.774 270.276 135.596C272.375 135.418 299.351 112.132 299.837 110.092Z" stroke="black" stroke-width="0.4"/>
<path d="M309.612 109.606C310.063 106.937 289.671 65.9042 287.275 64.6467C284.879 63.4012 239.552 70.1035 237.618 72.0015C235.685 73.8876 228.045 119.072 229.255 121.504C230.454 123.924 271.071 145.146 273.752 144.742C276.432 144.351 309.161 112.287 309.612 109.606Z" stroke="black" stroke-width="0.4"/>
<path d="M319.185 109.784C319.648 106.509 293.372 57.0547 290.406 55.5956C287.429 54.1484 232.268 63.852 229.967 66.2245C227.666 68.6088 219.848 124.066 221.402 126.984C222.956 129.902 273.277 154.481 276.539 153.9C279.801 153.331 318.722 113.069 319.185 109.784Z" stroke="black" stroke-width="0.4"/>
<path d="M328.438 112.049C329.043 108.182 298.9 49.2611 295.412 47.4936C291.925 45.7261 226.574 56.1888 223.81 58.9528C221.046 61.7286 210.797 127.115 212.588 130.59C214.368 134.078 273.384 164.031 277.251 163.414C281.106 162.797 327.833 115.916 328.438 112.049Z" stroke="black" stroke-width="0.4"/>
<path d="M337.121 117.316C338.058 112.903 307.014 43.1282 303.099 40.8743C299.197 38.6086 223.241 46.5802 219.884 49.5933C216.539 52.6182 200.631 127.304 202.47 131.433C204.308 135.561 270.43 173.758 274.926 173.284C279.41 172.821 336.172 121.729 337.121 117.316Z" stroke="black" stroke-width="0.4"/>
<path d="M344.808 125.525C346.267 120.626 317.5 39 313.289 36.0937C309.078 33.1874 222.553 35.3227 218.496 38.4306C214.427 41.5386 189.718 124.481 191.426 129.309C193.122 134.137 264.368 183.272 269.481 183.141C274.594 183.011 343.349 130.436 344.808 125.525Z" stroke="black" stroke-width="0.4"/>
<path d="M351.38 135.549C353.468 130.235 329.268 36.5801 324.855 32.9383C320.442 29.3084 223.893 23.389 219.065 26.4614C214.249 29.5338 178.78 119.523 180.216 125.062C181.639 130.59 256.278 192.133 261.984 192.489C267.69 192.833 349.28 140.875 351.38 135.549Z" stroke="black" stroke-width="0.4"/>
<path d="M357.382 145.502C360.111 139.808 340.751 34.6584 336.172 30.3048C331.605 25.9513 225.614 11.8705 220.062 14.8717C214.498 17.8848 168.353 114.327 169.504 120.543C170.643 126.759 248.117 200.449 254.38 201.279C260.644 202.109 354.666 151.207 357.382 145.502Z" stroke="black" stroke-width="0.4"/>
<path d="M364.061 153.355C367.287 147.233 350.537 31.3369 345.709 26.3783C340.881 21.4198 225.483 1.53827 219.279 4.5988C213.063 7.65932 158.496 111.266 159.492 118.111C160.477 124.956 242.15 208.871 248.971 210.045C255.792 211.22 360.834 159.476 364.061 153.355Z" stroke="black" stroke-width="0.4"/>
<path d="M372.637 157.435C376.125 150.769 357.501 24.8599 352.234 19.4862C346.979 14.1125 221.474 -7.08577 214.736 -3.74055C207.998 -0.395321 149.053 112.405 150.156 119.855C151.248 127.293 240.323 218.219 247.737 219.464C255.151 220.722 369.15 164.102 372.637 157.435Z" stroke="black" stroke-width="0.4"/>
<path d="M383.563 156.759C387.003 149.392 360.905 14.4328 354.962 8.893C349.031 3.34135 212.6 -13.539 205.495 -9.6125C198.389 -5.68602 140.168 118.847 141.71 126.818C143.252 134.802 243.704 228.646 251.758 229.642C259.825 230.639 380.123 164.114 383.563 156.759Z" stroke="black" stroke-width="0.4"/>
<path d="M396.137 151.35C399.245 143.2 360.514 0.719772 353.717 -4.74884C346.908 -10.2175 199.445 -17.418 192.138 -12.6374C184.842 -7.85681 132.422 130.175 134.711 138.598C137.001 147.008 252.079 239.512 260.798 239.939C269.505 240.366 393.041 159.511 396.137 151.35Z" stroke="black" stroke-width="0.4"/>
<path d="M409.008 142.666C411.546 133.698 357.181 -14.4642 349.434 -19.66C341.688 -24.8558 183.964 -18.9364 176.633 -13.1712C169.302 -7.40605 126.194 144.422 129.409 153.177C132.623 161.931 263.704 249.844 273.016 249.488C282.34 249.144 406.457 151.646 409.008 142.666Z" stroke="black" stroke-width="0.4"/>
<path d="M420.977 133.532C422.946 123.805 353.088 -28.9958 344.44 -33.8832C335.792 -38.7587 168.887 -19.5295 161.568 -12.8154C154.261 -6.10118 120.963 158.574 125.091 167.613C129.219 176.641 275.555 259.192 285.412 258.053C295.282 256.926 419.008 143.26 420.977 133.532Z" stroke="black" stroke-width="0.4"/>
<path d="M431.701 127.388C433.278 116.984 351.332 -41.2498 341.913 -45.9711C332.495 -50.6923 156.692 -21.6411 149.29 -14.1558C141.9 -6.65873 115.185 169.523 120.025 178.871C124.877 188.23 284.179 268.065 294.57 266.357C304.962 264.637 430.123 137.803 431.701 127.388Z" stroke="black" stroke-width="0.4"/>
<path d="M441.309 127.257C442.875 116.237 354.749 -50.2534 344.761 -55.1526C334.76 -60.0518 149.183 -27.6791 141.437 -19.6956C133.691 -11.7003 107.119 174.802 112.327 184.636C117.534 194.47 286.694 277.365 297.666 275.455C308.627 273.545 439.744 138.277 441.309 127.257Z" stroke="black" stroke-width="0.4"/>
<path d="M449.732 134.683C451.772 123.129 364.784 -55.3543 354.416 -60.8703C344.06 -66.3864 147.428 -38.7942 138.982 -30.6566C130.547 -22.507 96.0156 173.034 101.152 183.58C106.289 194.126 281.593 287.389 293.206 285.764C304.831 284.127 447.691 146.237 449.732 134.683Z" stroke="black" stroke-width="0.4"/>
<path d="M456.363 149.167C459.329 137.186 380.716 -56.1847 370.241 -62.6972C359.767 -69.2097 151.568 -54.2155 142.137 -46.2676C132.706 -38.3197 82.6348 164.327 87.2731 175.763C91.9232 187.186 269.173 297.425 281.486 296.547C293.787 295.657 453.409 161.136 456.363 149.167Z" stroke="black" stroke-width="0.4"/>
<path d="M460.704 168.088C464.868 155.846 399.945 -53.2428 389.589 -60.9771C379.221 -68.7233 160.31 -71.594 149.741 -64.1207C139.183 -56.6592 68.8031 150.65 72.6466 162.999C76.4781 175.359 251.889 306.345 264.819 306.523C277.761 306.689 456.541 180.342 460.704 168.088Z" stroke="black" stroke-width="0.4"/>
<path d="M463.409 187.436C468.795 175.015 418.972 -48.6045 408.818 -57.5726C398.676 -66.5288 170.595 -88.249 158.934 -81.3687C147.274 -74.4885 56.1458 135.715 59.0877 148.93C62.0296 162.145 233.775 313.783 247.251 315.064C260.738 316.345 458.024 199.856 463.409 187.436Z" stroke="black" stroke-width="0.4"/>
<path d="M466.565 203.047C472.935 190.425 434.666 -45.7931 424.631 -55.7576C414.607 -65.7221 178.128 -102.306 165.554 -95.8529C152.979 -89.3878 45.09 124.208 47.3557 138.171C49.6215 152.121 219.421 320.734 233.395 322.893C247.369 325.052 460.194 215.668 466.565 203.047Z" stroke="black" stroke-width="0.4"/>
<path d="M472.792 211.659C479.708 198.634 444.987 -48.4029 434.749 -59.0079C424.512 -69.613 178.828 -112.935 165.577 -106.47C152.327 -100.017 35.2086 120.258 37.2608 134.861C39.313 149.452 212.612 328.908 227.132 331.47C241.64 334.032 465.865 224.672 472.792 211.659Z" stroke="black" stroke-width="0.4"/>
<path d="M483.587 211.433C490.491 197.732 448.783 -58.5453 437.881 -69.352C426.991 -80.1469 170.358 -119.673 156.716 -112.65C143.074 -105.628 26.1812 126.237 28.6486 141.385C31.116 156.522 215.507 339.335 230.667 341.672C245.827 344.009 476.683 225.135 483.587 211.433Z" stroke="black" stroke-width="0.4"/>
<path d="M498.356 202.24C504.691 187.602 445.663 -75.6985 433.694 -86.2442C421.724 -96.7781 153.074 -122.01 139.349 -113.884C125.636 -105.758 18.6129 141.943 22.1005 157.506C25.588 173.07 228.105 351.387 243.988 352.882C259.861 354.377 492.033 216.878 498.356 202.24Z" stroke="black" stroke-width="0.4"/>
</svg>
