<svg width="376" height="561" viewBox="0 0 376 561" fill="none" xmlns="http://www.w3.org/2000/svg">
<path d="M88.144 296.517C89.0402 297.151 102.883 294.766 103.517 293.856C104.151 292.96 101.766 279.117 100.856 278.483C99.9598 277.849 86.1172 280.234 85.483 281.144C84.8488 282.04 87.234 295.883 88.144 296.517Z" stroke="black" stroke-width="0.4"/>
<path d="M82.9461 306.292C84.8212 307.451 112.134 300.929 113.292 299.054C114.451 297.179 107.929 269.866 106.054 268.708C104.179 267.549 76.8658 274.071 75.7076 275.946C74.5495 277.821 81.071 305.134 82.9461 306.292Z" stroke="black" stroke-width="0.4"/>
<path d="M77.9412 316.15C80.809 317.805 121.496 306.927 123.15 304.059C124.805 301.191 113.927 260.504 111.059 258.85C108.191 257.195 67.5041 268.073 65.8496 270.941C64.1951 273.809 75.0734 314.496 77.9412 316.15Z" stroke="black" stroke-width="0.4"/>
<path d="M71.8333 325.36C75.6249 327.622 130.085 313.944 132.36 310.167C134.622 306.375 120.944 251.914 117.167 249.64C113.375 247.378 58.9144 261.056 56.6395 264.833C54.3784 268.625 68.0555 323.085 71.8333 325.36Z" stroke="black" stroke-width="0.4"/>
<path d="M63.6436 333.219C68.221 336.294 137.131 322.92 140.219 318.356C143.294 313.779 129.92 244.869 125.356 241.781C120.779 238.706 51.869 252.08 48.7806 256.644C45.706 261.221 59.0799 330.131 63.6436 333.219Z" stroke="black" stroke-width="0.4"/>
<path d="M53.2202 339.231C58.3905 343.353 142.094 333.95 146.231 328.78C150.353 323.609 140.95 239.906 135.78 235.769C130.609 231.647 46.9056 241.05 42.7693 246.22C38.6468 251.391 48.0499 335.094 53.2202 339.231Z" stroke="black" stroke-width="0.4"/>
<path d="M41.3492 343.505C46.9469 348.813 145.183 346.249 150.505 340.651C155.813 335.053 153.249 236.817 147.651 231.495C142.053 226.187 43.8172 228.751 38.4952 234.349C33.187 239.947 35.7515 338.183 41.3492 343.505Z" stroke="black" stroke-width="0.4"/>
<path d="M29.3679 347.034C35.3241 353.556 147.527 358.588 154.034 352.632C160.556 346.676 165.588 234.473 159.632 227.966C153.676 221.444 41.4733 216.412 34.9656 222.368C28.4441 228.324 23.4117 340.527 29.3679 347.034Z" stroke="black" stroke-width="0.4"/>
<path d="M18.7101 351.612C25.1213 359.181 151.029 369.701 158.612 363.29C166.181 356.879 176.701 230.971 170.29 223.388C163.879 215.819 37.9712 205.299 30.3881 211.71C22.8188 218.121 12.2989 344.029 18.7101 351.612Z" stroke="black" stroke-width="0.4"/>
<path d="M10.5203 359.002C17.6622 367.399 157.605 378.635 166.002 371.48C174.399 364.338 185.635 224.395 178.48 215.998C171.338 207.601 31.3946 196.365 22.998 203.52C14.6014 210.662 3.3646 350.605 10.5203 359.002Z" stroke="black" stroke-width="0.4"/>
<path d="M5.6809 370.156C13.9534 379.049 168.277 384.578 177.156 376.319C186.049 368.047 191.578 213.723 183.319 204.844C175.047 195.951 20.7231 190.422 11.8439 198.681C2.95097 206.953 -2.57782 361.277 5.6809 370.156Z" stroke="black" stroke-width="0.4"/>
<path d="M4.57793 384.619C14.2981 393.622 182.63 387.128 191.619 377.422C200.622 367.702 194.128 199.37 184.422 190.381C174.702 181.378 6.3703 187.872 -2.61915 197.578C-11.6224 207.298 -5.12847 375.63 4.57793 384.619Z" stroke="black" stroke-width="0.4"/>
<path d="M6.52196 400.723C17.8415 409.519 198.927 386.798 207.723 375.478C216.519 364.159 193.798 183.073 182.478 174.277C171.159 165.481 -9.92652 188.202 -18.7229 199.522C-27.5194 210.842 -4.79758 391.927 6.52196 400.723Z" stroke="black" stroke-width="0.4"/>
<path d="M9.43112 416.372C22.3086 424.879 214.865 385.46 223.372 372.569C231.879 359.691 192.46 167.135 179.569 158.628C166.691 150.121 -25.8649 189.54 -34.3717 202.431C-42.8786 215.309 -3.46019 407.865 9.43112 416.372Z" stroke="black" stroke-width="0.4"/>
<path d="M10.2308 429.884C24.4733 438.308 228.459 386.012 236.884 371.769C245.308 357.527 193.012 153.541 178.769 145.117C164.527 136.692 -39.4593 188.988 -47.8835 203.231C-56.3077 217.473 -4.01167 421.459 10.2308 429.884Z" stroke="black" stroke-width="0.4"/>
<path d="M5.97049 440.169C21.247 449.021 238.317 391.292 247.169 376.03C256.021 360.753 198.292 143.683 183.03 134.831C167.753 125.979 -49.3174 183.708 -58.169 198.97C-67.0206 214.247 -9.29227 431.317 5.97049 440.169Z" stroke="black" stroke-width="0.4"/>
<path d="M-4.9079 446.497C10.9891 456.438 243.557 402.805 253.497 386.908C263.438 371.011 209.805 138.443 193.908 128.502C178.011 118.562 -54.5567 172.195 -64.4975 188.092C-74.4382 203.989 -20.8049 436.557 -4.9079 446.497Z" stroke="black" stroke-width="0.4"/>
<path d="M-21.8528 448.373C-5.77654 460.009 243.736 419.943 255.373 403.853C267.009 387.776 226.943 138.264 210.853 126.627C194.776 114.991 -54.7359 155.057 -66.3726 171.147C-78.0092 187.223 -37.9428 436.736 -21.8528 448.373Z" stroke="black" stroke-width="0.4"/>
<path d="M-42.2996 446.263C-26.4302 459.94 239.586 440.183 253.263 424.3C266.94 408.43 247.183 142.414 231.3 128.737C215.43 115.06 -50.5859 134.817 -64.2631 150.7C-77.9403 166.57 -58.1828 432.586 -42.2996 446.263Z" stroke="black" stroke-width="0.4"/>
<path d="M-62.6775 442.279C-47.2079 457.996 233.561 460.161 249.279 444.678C264.996 429.208 267.161 148.439 251.678 132.722C236.208 117.004 -44.5607 114.839 -60.2785 130.323C-75.9962 145.792 -78.1609 426.561 -62.6775 442.279Z" stroke="black" stroke-width="0.4"/>
<path d="M-79.774 440.086C-64.5112 457.514 229.659 477.037 247.086 461.774C264.514 446.511 284.037 152.341 268.774 134.914C253.511 117.486 -40.6589 97.9633 -58.0863 113.226C-75.5137 128.489 -95.0368 422.659 -79.774 440.086Z" stroke="black" stroke-width="0.4"/>
<path d="M-91.3831 443.478C-75.7894 462.064 231.892 488.991 250.478 473.383C269.064 457.789 295.991 150.108 280.383 131.522C264.789 112.936 -42.8925 86.0094 -61.478 101.617C-80.0636 117.211 -106.991 424.892 -91.3831 443.478Z" stroke="black" stroke-width="0.4"/>
<path d="M-96.2501 454.756C-79.5258 473.824 242.674 494.974 261.756 478.25C280.824 461.526 301.974 139.326 285.25 120.244C268.526 101.176 -53.6743 80.0257 -72.7562 96.7499C-91.8243 113.474 -112.974 435.674 -96.2501 454.756Z" stroke="black" stroke-width="0.4"/>
<path d="M-93.8786 473.493C-75.2793 492.327 261.646 494.478 280.493 475.879C299.327 457.279 301.478 120.354 282.879 101.507C264.279 82.6729 -72.6459 80.5221 -91.4934 99.1214C-110.327 117.721 -112.478 454.646 -93.8786 473.493Z" stroke="black" stroke-width="0.4"/>
<path d="M-85.1787 496.67C-64.2631 514.635 285.705 488.094 303.67 467.179C321.635 446.263 295.094 96.2949 274.179 78.3298C253.263 60.3647 -96.7051 86.9057 -114.67 107.821C-132.635 128.737 -106.094 478.705 -85.1787 496.67Z" stroke="black" stroke-width="0.4"/>
<path d="M-73.2525 520.095C-49.993 536.875 310.33 478.512 327.095 455.252C343.875 431.993 285.512 71.6705 262.252 54.9049C238.993 38.1255 -121.33 96.488 -138.095 119.747C-154.875 143.007 -96.512 503.33 -73.2525 520.095Z" stroke="black" stroke-width="0.4"/>
<path d="M-63.1463 540.156C-37.8876 555.929 331.397 470.419 347.156 445.146C362.929 419.888 277.419 50.6032 252.146 34.8441C226.888 19.0712 -142.397 104.581 -158.156 129.854C-173.929 155.112 -88.4188 524.397 -63.1463 540.156Z" stroke="black" stroke-width="0.4"/>
</svg>
